# xmcd
#
# Track frame offsets: 
#        151
#        16764
#        37434
#        52226
#        72220
#        87995
#        114322
#        130822
#        153480
#        174093
#        187027
#        202464
#        221987
#        240661
#
# Disc length: 3289 seconds
#
# Revision: 0
# Processed by: cddbd v1.5.2PL0 Copyright (c) Steve Scherf et al.
# Submitted via: ExactAudioCopy v0.95b1
#
DISCID=d30cd70e
DTITLE=Various Artist - 35 Years' Tubes
DYEAR=2005
DGENRE=Vocal
TTITLE0=SCARBOROUGH FAIR
TTITLE1=THE LOOK OF LOVE
TTITLE2=FOR ALL WE KNOW
TTITLE3=CRY ME A RIVER
TTITLE4=YOU'RE JUST A COUNTRY BOY
TTITLE5=HOME
TTITLE6=NOT GOING ANYWHERE
TTITLE7=OVER THE RAINBOW
TTITLE8=LONELINESS
TTITLE9=I'M GETTING GOOD AT MISSING YOU
TTITLE10=YOU ARE THERE
TTITLE11=THESE FOOLISH THINGS
TTITLE12=THE SUMMER KNOWS
TTITLE13=WHEN YOU WISH UPON A STER
EXTD=
EXTT0=
EXTT1=
EXTT2=
EXTT3=
EXTT4=
EXTT5=
EXTT6=
EXTT7=
EXTT8=
EXTT9=
EXTT10=
EXTT11=
EXTT12=
EXTT13=
PLAYORDER=
